<?xml version="1.0" standalone="no"?>
<!DOCTYPE svg PUBLIC "-//W3C//DTD SVG 20010904//EN"
 "http://www.w3.org/TR/2001/REC-SVG-20010904/DTD/svg10.dtd">
<svg version="1.0" xmlns="http://www.w3.org/2000/svg"
 width="240.000000pt" height="240.000000pt" viewBox="0 0 240.000000 240.000000"
 preserveAspectRatio="xMidYMid meet">
<metadata>
Created by potrace 1.16, written by Peter Selinger 2001-2019
</metadata>
<g transform="translate(0.000000,240.000000) scale(0.100000,-0.100000)"
fill="#000000" stroke="none">
<path d="M1115 1863 c-90 -47 -129 -146 -96 -246 21 -63 113 -127 181 -127 68
0 160 64 181 127 23 71 8 152 -40 207 -46 53 -162 73 -226 39z"/>
<path d="M395 1698 c-66 -23 -76 -29 -85 -53 -7 -18 -5 -56 5 -123 8 -53 19
-137 25 -187 18 -146 24 -161 83 -200 66 -44 123 -56 209 -45 l66 8 52 -49
c29 -27 55 -49 59 -49 3 0 5 72 3 161 l-3 161 -24 -6 c-16 -4 -36 1 -57 14
-55 33 -157 21 -209 -26 -16 -14 -18 -13 -24 14 -3 17 -30 65 -60 107 -54 78
-58 97 -24 116 11 5 19 16 19 24 0 8 4 15 9 15 8 0 18 23 27 63 2 10 -2 20
-10 23 -8 3 -12 13 -9 25 6 21 -5 23 -52 7z"/>
<path d="M1953 1691 c3 -12 -1 -22 -9 -25 -8 -3 -12 -13 -10 -23 9 -40 19 -63
27 -63 5 0 9 -7 9 -15 0 -8 8 -19 19 -24 34 -19 30 -38 -24 -116 -30 -42 -57
-90 -60 -107 -6 -27 -8 -28 -24 -14 -52 47 -154 59 -209 26 -21 -13 -41 -18
-57 -14 l-24 6 -3 -161 c-2 -89 0 -161 3 -161 4 0 31 22 60 50 l53 49 61 -8
c84 -12 149 2 212 45 60 41 66 55 83 199 6 50 17 134 25 187 21 136 16 144
-86 177 -48 15 -52 14 -46 -8z"/>
<path d="M1091 1423 c-58 -19 -138 -40 -179 -46 l-74 -12 4 -200 c4 -221 10
-247 89 -383 36 -61 196 -228 242 -251 34 -18 52 -10 141 71 80 72 143 152
185 235 52 103 61 157 61 353 l0 175 -73 12 c-40 6 -117 26 -172 44 -55 17
-104 33 -110 34 -5 2 -57 -13 -114 -32z m204 -68 c39 -13 98 -29 133 -36 l62
-13 0 -146 c0 -162 -10 -214 -63 -315 -33 -62 -202 -245 -227 -245 -25 0 -194
183 -227 245 -53 101 -63 153 -63 315 l0 145 83 19 c45 10 109 28 142 41 33
12 67 20 75 18 8 -3 47 -16 85 -28z"/>
</g>
</svg>
